<svg width="25" height="25" viewBox="0 0 25 25" fill="none" xmlns="http://www.w3.org/2000/svg">
<path d="M12.4756 0.0976562C15.8447 0.0976562 16.2598 0.12207 17.5781 0.170898C18.8721 0.219727 19.7754 0.439453 20.5811 0.756836C21.4111 1.07422 22.0947 1.48926 22.7783 2.17285C23.4619 2.85645 23.877 3.54004 24.1943 4.37012C24.5117 5.17578 24.7314 6.0791 24.7803 7.37305C24.8291 8.69141 24.8535 9.10645 24.8535 12.4756C24.8535 15.8447 24.8291 16.2598 24.7803 17.5781C24.7314 18.8721 24.5117 19.7754 24.1943 20.5811C23.877 21.4111 23.4619 22.0947 22.7783 22.7783C22.0947 23.4619 21.4111 23.877 20.5811 24.1943C19.7754 24.5117 18.8721 24.7314 17.5781 24.7803C16.2598 24.8291 15.8447 24.8535 12.4756 24.8535C9.10645 24.8535 8.69141 24.8291 7.37305 24.7803C6.0791 24.7314 5.17578 24.5117 4.37012 24.1943C3.54004 23.877 2.85645 23.4619 2.17285 22.7783C1.48926 22.0947 1.07422 21.4111 0.756836 20.5811C0.439453 19.7754 0.219727 18.8721 0.170898 17.5781C0.12207 16.2598 0.0976562 15.8447 0.0976562 12.4756C0.0976562 9.10645 0.12207 8.69141 0.170898 7.37305C0.219727 6.0791 0.439453 5.17578 0.756836 4.37012C1.07422 3.54004 1.48926 2.85645 2.17285 2.17285C2.85645 1.48926 3.54004 1.07422 4.37012 0.756836C5.17578 0.439453 6.0791 0.219727 7.37305 0.170898C8.69141 0.12207 9.10645 0.0976562 12.4756 0.0976562ZM12.4756 1.70898C8.95996 1.70898 8.54492 1.7334 7.17773 1.78223C5.9082 1.83105 5.2002 2.0752 4.73633 2.24609C3.54004 2.73438 2.73438 3.54004 2.24609 4.73633C2.0752 5.2002 1.83105 5.9082 1.78223 7.17773C1.7334 8.54492 1.70898 8.95996 1.70898 12.4756C1.70898 15.9912 1.7334 16.4062 1.78223 17.7734C1.83105 19.043 2.0752 19.751 2.24609 20.2148C2.73438 21.4111 3.54004 22.2168 4.73633 22.7051C5.2002 22.876 5.9082 23.1201 7.17773 23.1689C8.54492 23.2178 8.95996 23.2422 12.4756 23.2422C15.9912 23.2422 16.4062 23.2178 17.7734 23.1689C19.043 23.1201 19.751 22.876 20.2148 22.7051C21.4111 22.2168 22.2168 21.4111 22.7051 20.2148C22.876 19.751 23.1201 19.043 23.1689 17.7734C23.2178 16.4062 23.2422 15.9912 23.2422 12.4756C23.2422 8.95996 23.2178 8.54492 23.1689 7.17773C23.1201 5.9082 22.876 5.2002 22.7051 4.73633C22.2168 3.54004 21.4111 2.73438 20.2148 2.24609C19.751 2.0752 19.043 1.83105 17.7734 1.78223C16.4062 1.7334 15.9912 1.70898 12.4756 1.70898ZM12.4756 17.4316C15.21 17.4316 17.4316 15.21 17.4316 12.4756C17.4316 9.74121 15.21 7.51953 12.4756 7.51953C9.74121 7.51953 7.51953 9.74121 7.51953 12.4756C7.51953 15.21 9.74121 17.4316 12.4756 17.4316ZM12.4756 6.12793C15.9912 6.12793 18.8232 8.95996 18.8232 12.4756C18.8232 15.9912 15.9912 18.8232 12.4756 18.8232C8.95996 18.8232 6.12793 15.9912 6.12793 12.4756C6.12793 8.95996 8.95996 6.12793 12.4756 6.12793ZM20.5811 5.88379C20.5811 6.71387 19.8975 7.34863 19.0674 7.34863C18.2373 7.34863 17.6025 6.71387 17.6025 5.88379C17.6025 5.05371 18.2373 4.37012 19.0674 4.37012C19.8975 4.37012 20.5811 5.05371 20.5811 5.88379Z" fill="#7D0202"/>
</svg>
