<svg width="25" height="25" viewBox="0 0 25 25" fill="none" xmlns="http://www.w3.org/2000/svg">
<g clip-path="url(#clip0_1_436)">
<path d="M24.3602 24.4734H19.2815C18.9222 24.4734 18.6319 24.1831 18.6319 23.8238V15.6447C18.6319 12.8396 17.185 12.8396 16.7077 12.8396C15.4232 12.8396 14.877 13.8534 14.6998 14.2914C14.6161 14.4883 14.5767 14.8229 14.5767 15.2904V23.8288C14.5767 24.1881 14.2864 24.4784 13.9272 24.4784H8.84352C8.67128 24.4784 8.50395 24.4095 8.38093 24.2865C8.2579 24.1635 8.18901 23.9961 8.19391 23.8239C8.19391 23.6861 8.26281 9.97054 8.19391 8.56797C8.18408 8.3908 8.24804 8.21856 8.37109 8.09061C8.49413 7.96265 8.66144 7.88882 8.8435 7.88882H13.9272C14.2864 7.88882 14.5768 8.17916 14.5768 8.53841V8.92227C15.4331 8.15948 16.6683 7.52955 18.5088 7.52955C22.5787 7.52955 25.0098 10.3445 25.0098 15.0591V23.8238C25.0098 24.1831 24.7195 24.4734 24.3602 24.4734ZM19.9311 23.1743L23.7156 23.1742V15.059C23.7156 11.0974 21.8209 8.82869 18.5138 8.82869C16.3041 8.82869 15.2313 9.93106 14.5571 10.9399C14.4784 11.2057 14.2274 11.4025 13.9321 11.4025H13.8977C13.6614 11.4025 13.4449 11.2746 13.3317 11.0679C13.2432 10.9055 13.2234 10.7185 13.2825 10.5462V9.18306H9.5079C9.54235 11.8947 9.5079 20.6693 9.49806 23.1693H13.2776V15.2854C13.2776 14.6309 13.3465 14.1585 13.4941 13.7992C14.065 12.3868 15.2657 11.5355 16.7028 11.5355C18.75 11.5355 19.9262 13.0316 19.9262 15.6398V23.1742H19.9311L19.9311 23.1743ZM6.03349 24.4733H0.949828C0.590576 24.4733 0.300244 24.183 0.300244 23.8237V8.53836C0.300244 8.17911 0.590576 7.88875 0.949828 7.88875H6.03349C6.39274 7.88875 6.68308 8.17911 6.68308 8.53834V23.8238C6.68308 24.183 6.39274 24.4734 6.03349 24.4734V24.4733ZM1.59946 23.1742H5.38388V9.18792H1.59949V23.1742L1.59946 23.1742ZM3.49411 7.10132L3.45964 7.1013C1.45669 7.1013 0 5.7135 0 3.80405C0 1.89954 1.4813 0.511719 3.52854 0.511719C5.54133 0.511719 6.97836 1.86013 7.01774 3.78928C7.01774 5.7135 5.53645 7.1013 3.49411 7.1013V7.10132ZM3.52854 1.81587C2.19487 1.81587 1.29922 2.61804 1.29922 3.80901C1.29922 4.98025 2.18506 5.8021 3.45967 5.8021H3.49409C4.82285 5.8021 5.7185 4.99993 5.7185 3.80899C5.69389 2.60327 4.83269 1.81587 3.52854 1.81587Z" fill="#7D0202"/>
</g>
<defs>
<clipPath id="clip0_1_436">
<rect width="25" height="25" fill="white"/>
</clipPath>
</defs>
</svg>
