<svg width="25" height="25" viewBox="0 0 25 25" fill="none" xmlns="http://www.w3.org/2000/svg">
<g clip-path="url(#clip0_1_442)">
<path d="M22.9673 4.63125C22.2899 4.14375 20.4024 3.49609 12.4934 3.49609C4.01806 3.49609 2.76064 4.23984 2.3571 4.4832C0.209448 5.77341 0.00554197 11.4855 -0.0131836 12.6437C0.0125976 14.1735 0.259863 19.2629 2.35556 20.5219C2.75832 20.7644 4.00869 21.5039 12.4934 21.5039C20.4075 21.5039 22.2927 20.8594 22.9673 20.3738C24.7977 19.057 25.0083 14.5223 25.0133 12.6238C25.0087 11.0973 24.8485 5.98635 22.9673 4.63127L22.9673 4.63125ZM22.0548 19.1059C21.7825 19.3019 20.2192 19.9414 12.4934 19.9414C5.02426 19.9414 3.45708 19.3617 3.16098 19.1832C2.40708 18.7308 1.61138 16.3297 1.5489 12.6394C1.61062 8.9574 2.41726 6.26951 3.16259 5.82263C3.45947 5.64333 5.03249 5.05896 12.4934 5.05896C20.2129 5.05896 21.7805 5.70273 22.0547 5.89961C22.7239 6.38164 23.4403 8.91914 23.4508 12.6289C23.4403 16.3969 22.7192 18.6277 22.0547 19.1059H22.0548ZM17.5883 11.8855L10.5587 7.5718C10.4402 7.50034 10.3048 7.46164 10.1665 7.45965C10.0281 7.45766 9.89169 7.49245 9.77118 7.56047C9.65056 7.6285 9.55018 7.72736 9.48031 7.84692C9.41044 7.96648 9.37359 8.10246 9.37353 8.24094V16.8698C9.37363 17.077 9.45597 17.2757 9.60246 17.4222C9.74895 17.5686 9.94761 17.651 10.1548 17.6511C10.297 17.6511 10.4365 17.6124 10.5583 17.539L17.588 13.2238C17.8223 13.082 17.9657 12.8285 17.9657 12.5546C17.9657 12.2808 17.8227 12.0265 17.5884 11.8855H17.5883ZM10.9364 15.4859V9.62412L15.6728 12.5546L10.9364 15.4859Z" fill="#7D0202"/>
</g>
<defs>
<clipPath id="clip0_1_442">
<rect width="25" height="25" fill="white"/>
</clipPath>
</defs>
</svg>
